<svg width="26" height="25" viewBox="0 0 26 25" fill="none" xmlns="http://www.w3.org/2000/svg">
<path fill-rule="evenodd" clip-rule="evenodd" d="M19.0999 9.08171C19.8273 9.29938 20.3508 9.37256 20.3508 9.37256V7.49609H21.6018C22.4313 7.49609 23.2267 7.1666 23.8132 6.58009C24.3998 5.99358 24.7292 5.1981 24.7292 4.36865C24.7292 3.5392 24.3998 2.74373 23.8132 2.15722C23.2267 1.57071 22.4313 1.24121 21.6018 1.24121H17.9965C17.1279 1.24121 16.2949 1.58626 15.6807 2.20045C15.0665 2.81465 14.7214 3.64767 14.7214 4.51627C14.7214 7.34222 17.4411 8.58569 19.0999 9.08171ZM23.4783 4.36865C23.4783 4.86632 23.2806 5.34361 22.9287 5.69551C22.5768 6.04742 22.0995 6.24512 21.6018 6.24512H19.0999V7.76818C18.7567 7.65166 18.4217 7.51228 18.0972 7.35098C16.8569 6.72924 15.9724 5.8448 15.9724 4.51627C15.9724 3.97945 16.1857 3.46462 16.5653 3.08503C16.9448 2.70544 17.4597 2.49219 17.9965 2.49219H21.6018C22.0995 2.49219 22.5768 2.68989 22.9287 3.04179C23.2806 3.3937 23.4783 3.87098 23.4783 4.36865ZM7.7266 8.74269C6.90691 8.71431 6.1312 8.36493 5.56673 7.76989C5.00227 7.17485 4.69425 6.38181 4.70911 5.56176C4.72396 4.74171 5.06049 3.96035 5.64614 3.38614C6.23178 2.81192 7.01963 2.49087 7.83981 2.49219H9.82199C10.6237 2.49219 11.3926 2.81068 11.9596 3.3776C12.5265 3.94452 12.845 4.71343 12.845 5.51517C12.845 8.0434 10.5744 9.1993 9.09204 9.6853C8.37398 9.92049 7.84106 9.99805 7.84106 9.99805V8.74707L7.7266 8.74269ZM9.09204 7.5405L7.77226 7.49297C7.2763 7.48219 6.80482 7.27533 6.46105 6.91768C6.11728 6.56002 5.92924 6.08073 5.93809 5.58473C5.94694 5.08873 6.15197 4.61645 6.50828 4.2713C6.8646 3.92614 7.34316 3.73624 7.83919 3.74316H9.82136C10.0541 3.74308 10.2846 3.78886 10.4997 3.87787C10.7147 3.96689 10.9102 4.0974 11.0748 4.26195C11.2394 4.42651 11.37 4.62188 11.459 4.83691C11.5481 5.05194 11.594 5.28242 11.594 5.51517C11.594 6.71298 10.8328 7.49797 9.76507 8.05465C9.53989 8.17225 9.31159 8.27233 9.09204 8.35739V7.5405ZM15.9724 12.5C15.9724 13.8823 14.8528 15.002 13.4705 15.002C12.0881 15.002 10.9685 13.8823 10.9685 12.5C10.9685 11.1177 12.0881 9.99805 13.4705 9.99805C14.8528 9.99805 15.9724 11.1177 15.9724 12.5ZM14.7214 12.5C14.7214 12.8318 14.5896 13.15 14.355 13.3846C14.1204 13.6192 13.8022 13.751 13.4705 13.751C13.1387 13.751 12.8205 13.6192 12.5859 13.3846C12.3513 13.15 12.2195 12.8318 12.2195 12.5C12.2195 12.1682 12.3513 11.85 12.5859 11.6154C12.8205 11.3808 13.1387 11.249 13.4705 11.249C13.8022 11.249 14.1204 11.3808 14.355 11.6154C14.5896 11.85 14.7214 12.1682 14.7214 12.5ZM10.343 13.751C10.343 15.1333 9.22339 16.2529 7.84106 16.2529C6.45874 16.2529 5.33911 15.1333 5.33911 13.751C5.33911 12.3686 6.45874 11.249 7.84106 11.249C9.22339 11.249 10.343 12.3686 10.343 13.751ZM9.09204 13.751C9.09204 14.0828 8.96024 14.4009 8.72564 14.6356C8.49103 14.8702 8.17284 15.002 7.84106 15.002C7.50928 15.002 7.19109 14.8702 6.95649 14.6356C6.72189 14.4009 6.59009 14.0828 6.59009 13.751C6.59009 13.4192 6.72189 13.101 6.95649 12.8664C7.19109 12.6318 7.50928 12.5 7.84106 12.5C8.17284 12.5 8.49103 12.6318 8.72564 12.8664C8.96024 13.101 9.09204 13.4192 9.09204 13.751ZM2.21167 20.3467C2.21167 18.4565 5.9621 17.5039 7.84106 17.5039C8.20698 17.5039 8.64419 17.5402 9.11081 17.6121C9.94896 16.9973 11.4858 16.2529 13.4705 16.2529C15.4545 16.2529 16.9913 16.9973 17.8307 17.6121C18.2505 17.5444 18.6747 17.5083 19.0999 17.5039C20.9788 17.5039 24.7292 18.4565 24.7292 20.3467V23.7588H2.21167V20.3467ZM12.0018 20.0202C12.2195 20.2229 12.2195 20.3286 12.2195 20.3467V22.5078H3.46265V20.3467C3.46265 20.328 3.46265 20.2229 3.68032 20.0202C3.90737 19.8082 4.28204 19.5824 4.79118 19.376C5.81198 18.9632 7.0592 18.7549 7.84106 18.7549C8.62292 18.7549 9.87015 18.9632 10.8909 19.376C11.4001 19.5824 11.7748 19.8082 12.0018 20.0202ZM16.0612 18.0393C15.2436 17.6848 14.3617 17.5025 13.4705 17.5039C12.4347 17.5039 11.554 17.7453 10.8803 18.0393C12.2658 18.5047 13.4705 19.2753 13.4705 20.3474C13.4705 19.2753 14.6751 18.5053 16.0612 18.0393ZM23.4783 20.3474C23.4783 20.3286 23.4783 20.2229 23.2606 20.0202C23.0335 19.8082 22.6589 19.5824 22.1497 19.376C21.1289 18.9632 19.8817 18.7549 19.0999 18.7549C18.318 18.7549 17.0708 18.9632 16.05 19.376C15.5408 19.5824 15.1662 19.8082 14.9391 20.0202C14.7214 20.2229 14.7214 20.3286 14.7214 20.3467V22.5078H23.4783V20.3467V20.3474ZM19.0999 16.2529C20.4822 16.2529 21.6018 15.1333 21.6018 13.751C21.6018 12.3686 20.4822 11.249 19.0999 11.249C17.7175 11.249 16.5979 12.3686 16.5979 13.751C16.5979 15.1333 17.7175 16.2529 19.0999 16.2529ZM19.0999 15.002C19.4316 15.002 19.7498 14.8702 19.9844 14.6356C20.219 14.4009 20.3508 14.0828 20.3508 13.751C20.3508 13.4192 20.219 13.101 19.9844 12.8664C19.7498 12.6318 19.4316 12.5 19.0999 12.5C18.7681 12.5 18.4499 12.6318 18.2153 12.8664C17.9807 13.101 17.8489 13.4192 17.8489 13.751C17.8489 14.0828 17.9807 14.4009 18.2153 14.6356C18.4499 14.8702 18.7681 15.002 19.0999 15.002Z" fill="#173C34"/>
</svg>
