<svg width="25" height="25" viewBox="0 0 25 25" fill="none" xmlns="http://www.w3.org/2000/svg">
<path d="M3.755 15.2004V16.7004H7.19451L2.255 21.6399L3.3155 22.7004L8.255 17.7609V21.2004H9.755V15.2004H3.755ZM18.755 15.9504H20.255V19.7004H18.755V15.9504ZM15.755 12.2004H17.255V19.7004H15.755V12.2004ZM12.755 13.7004H14.255V19.7004H12.755V13.7004Z" fill="#458CFF"/>
<path d="M21.755 1.70044H3.755C3.3573 1.70084 2.976 1.859 2.69478 2.14022C2.41356 2.42144 2.2554 2.80274 2.255 3.20044V12.2004H3.755V9.95044H21.7558L21.7565 21.2004H12.755V22.7004H21.755C22.1526 22.6998 22.5338 22.5416 22.815 22.2604C23.0962 21.9793 23.2544 21.5981 23.255 21.2004V3.20044C23.2546 2.80274 23.0964 2.42144 22.8152 2.14022C22.534 1.859 22.1527 1.70084 21.755 1.70044ZM9.755 8.45044H3.755V3.20044H9.755V8.45044ZM11.255 8.45044V3.20044H21.755V8.45044H11.255Z" fill="#173C34"/>
</svg>
