<svg width="176" height="149" viewBox="0 0 176 149" fill="none" xmlns="http://www.w3.org/2000/svg">
<circle cx="6.10723" cy="5.96807" r="5.61895" fill="#4081FF"/>
<circle cx="33.4002" cy="5.96807" r="5.61895" fill="#4081FF"/>
<circle cx="60.6912" cy="5.96807" r="5.61895" fill="#4081FF"/>
<circle cx="87.9842" cy="5.96807" r="5.61895" fill="#4081FF"/>
<circle cx="115.275" cy="5.96807" r="5.61895" fill="#4081FF"/>
<circle cx="142.568" cy="5.96807" r="5.61895" fill="#4081FF"/>
<circle cx="169.859" cy="5.96807" r="5.61895" fill="#4081FF"/>
<circle cx="6.10723" cy="33.2604" r="5.61895" fill="#4081FF"/>
<circle cx="6.10723" cy="60.5517" r="5.61895" fill="#4081FF"/>
<circle cx="6.10723" cy="87.8443" r="5.61895" fill="#4081FF"/>
<circle cx="6.10723" cy="115.136" r="5.61895" fill="#4081FF"/>
<circle cx="6.10723" cy="142.429" r="5.61895" fill="#4081FF"/>
<circle cx="33.4002" cy="33.2604" r="5.61895" fill="#4081FF"/>
<circle cx="33.4002" cy="60.5527" r="5.61895" fill="#4081FF"/>
<circle cx="33.4002" cy="87.8443" r="5.61895" fill="#4081FF"/>
<circle cx="33.4002" cy="115.136" r="5.61895" fill="#4081FF"/>
<circle cx="33.4002" cy="142.429" r="5.61895" fill="#4081FF"/>
<circle cx="60.6912" cy="33.2604" r="5.61895" fill="#4081FF"/>
<circle cx="60.6912" cy="60.5527" r="5.61895" fill="#4081FF"/>
<circle cx="60.6912" cy="87.8443" r="5.61895" fill="#4081FF"/>
<circle cx="60.6912" cy="115.136" r="5.61895" fill="#4081FF"/>
<circle cx="60.6912" cy="142.429" r="5.61895" fill="#4081FF"/>
<circle cx="87.9842" cy="33.2604" r="5.61895" fill="#4081FF"/>
<circle cx="87.9842" cy="60.5517" r="5.61895" fill="#4081FF"/>
<circle cx="87.9842" cy="87.8443" r="5.61895" fill="#4081FF"/>
<circle cx="87.9842" cy="115.136" r="5.61895" fill="#4081FF"/>
<circle cx="87.9842" cy="142.429" r="5.61895" fill="#4081FF"/>
<circle cx="115.277" cy="33.2604" r="5.61895" fill="#4081FF"/>
<circle cx="115.277" cy="60.5517" r="5.61895" fill="#4081FF"/>
<circle cx="115.275" cy="87.8443" r="5.61895" fill="#4081FF"/>
<circle cx="115.275" cy="115.136" r="5.61895" fill="#4081FF"/>
<circle cx="115.277" cy="142.429" r="5.61895" fill="#4081FF"/>
<circle cx="142.568" cy="33.2604" r="5.61895" fill="#4081FF"/>
<circle cx="142.568" cy="60.5527" r="5.61895" fill="#4081FF"/>
<circle cx="142.568" cy="87.8443" r="5.61895" fill="#4081FF"/>
<circle cx="142.568" cy="115.136" r="5.61895" fill="#4081FF"/>
<circle cx="142.568" cy="142.429" r="5.61895" fill="#4081FF"/>
<circle cx="169.859" cy="33.2604" r="5.61895" fill="#4081FF"/>
<circle cx="169.859" cy="60.5527" r="5.61895" fill="#4081FF"/>
<circle cx="169.859" cy="87.8443" r="5.61895" fill="#4081FF"/>
<circle cx="169.859" cy="115.136" r="5.61895" fill="#4081FF"/>
<circle cx="169.859" cy="142.429" r="5.61895" fill="#4081FF"/>
</svg>
