<svg width="179" height="151" viewBox="0 0 179 151" fill="none" xmlns="http://www.w3.org/2000/svg">
<circle cx="6.33669" cy="6.12185" r="5.7156" fill="white"/>
<circle cx="34.0984" cy="6.12185" r="5.7156" fill="white"/>
<circle cx="61.8601" cy="6.12185" r="5.7156" fill="white"/>
<circle cx="89.6218" cy="6.12185" r="5.7156" fill="white"/>
<circle cx="117.384" cy="6.12185" r="5.7156" fill="white"/>
<circle cx="145.145" cy="6.12185" r="5.7156" fill="white"/>
<circle cx="172.903" cy="6.12185" r="5.7156" fill="white"/>
<circle cx="6.33669" cy="33.8836" r="5.7156" fill="white"/>
<circle cx="6.33669" cy="61.6443" r="5.7156" fill="white"/>
<circle cx="6.33669" cy="89.406" r="5.7156" fill="white"/>
<circle cx="6.33669" cy="117.168" r="5.7156" fill="white"/>
<circle cx="6.33669" cy="144.929" r="5.7156" fill="white"/>
<circle cx="34.0984" cy="33.8836" r="5.7156" fill="white"/>
<circle cx="34.0984" cy="61.6453" r="5.7156" fill="white"/>
<circle cx="34.0984" cy="89.406" r="5.7156" fill="white"/>
<circle cx="34.0984" cy="117.168" r="5.7156" fill="white"/>
<circle cx="34.0984" cy="144.929" r="5.7156" fill="white"/>
<circle cx="61.8601" cy="33.8836" r="5.7156" fill="white"/>
<circle cx="61.8601" cy="61.6453" r="5.7156" fill="white"/>
<circle cx="61.8601" cy="89.406" r="5.7156" fill="white"/>
<circle cx="61.8601" cy="117.168" r="5.7156" fill="white"/>
<circle cx="61.8601" cy="144.929" r="5.7156" fill="white"/>
<circle cx="89.6218" cy="33.8836" r="5.7156" fill="white"/>
<circle cx="89.6218" cy="61.6443" r="5.7156" fill="white"/>
<circle cx="89.6218" cy="89.406" r="5.7156" fill="white"/>
<circle cx="89.6218" cy="117.168" r="5.7156" fill="white"/>
<circle cx="89.6218" cy="144.929" r="5.7156" fill="white"/>
<circle cx="117.384" cy="33.8836" r="5.7156" fill="white"/>
<circle cx="117.384" cy="61.6443" r="5.7156" fill="white"/>
<circle cx="117.384" cy="89.406" r="5.7156" fill="white"/>
<circle cx="117.384" cy="117.168" r="5.7156" fill="white"/>
<circle cx="117.384" cy="144.929" r="5.7156" fill="white"/>
<circle cx="145.145" cy="33.8836" r="5.7156" fill="white"/>
<circle cx="145.145" cy="61.6453" r="5.7156" fill="white"/>
<circle cx="145.145" cy="89.406" r="5.7156" fill="white"/>
<circle cx="145.145" cy="117.168" r="5.7156" fill="white"/>
<circle cx="145.145" cy="144.929" r="5.7156" fill="white"/>
<circle cx="172.903" cy="33.8836" r="5.7156" fill="white"/>
<circle cx="172.903" cy="61.6453" r="5.7156" fill="white"/>
<circle cx="172.903" cy="89.406" r="5.7156" fill="white"/>
<circle cx="172.903" cy="117.168" r="5.7156" fill="white"/>
<circle cx="172.903" cy="144.929" r="5.7156" fill="white"/>
</svg>
